<svg width="236" height="30" viewBox="0 0 236 30" fill="none" xmlns="http://www.w3.org/2000/svg">
<path d="M12.348 3.944L4.464 28.136V28.1C4.32 28.46 4.116 28.76 3.852 29C3.612 29.216 3.312 29.324 2.952 29.324C2.76 29.324 2.568 29.3 2.376 29.252C2.208 29.228 2.028 29.192 1.836 29.144H1.872C0.504 28.712 0 27.944 0.36 26.84L8.568 1.892C8.688 1.508 8.892 1.184 9.18 0.919999C9.492 0.655999 9.852 0.499999 10.26 0.451998C10.668 0.379998 11.064 0.331998 11.448 0.307998C11.832 0.259999 12.132 0.235999 12.348 0.235999C12.564 0.235999 12.864 0.259999 13.248 0.307998C13.632 0.331998 14.028 0.367998 14.436 0.415999C14.772 0.463998 15.096 0.643998 15.408 0.955998C15.744 1.268 15.996 1.58 16.164 1.892C17.508 6.02 18.864 10.184 20.232 14.384C21.624 18.56 22.992 22.712 24.336 26.84C24.672 27.944 24.168 28.712 22.824 29.144C22.632 29.192 22.452 29.228 22.284 29.252C22.14 29.3 21.972 29.324 21.78 29.324C21.444 29.324 21.132 29.216 20.844 29C20.58 28.76 20.388 28.46 20.268 28.1V28.136L12.348 3.944ZM15.048 20.36C15.048 21.128 14.772 21.788 14.22 22.34C13.692 22.868 13.044 23.132 12.276 23.132C11.508 23.132 10.86 22.868 10.332 22.34C9.804 21.788 9.54 21.128 9.54 20.36C9.54 19.592 9.804 18.944 10.332 18.416C10.86 17.864 11.508 17.588 12.276 17.588C13.044 17.588 13.692 17.864 14.22 18.416C14.772 18.944 15.048 19.592 15.048 20.36ZM29.8277 29.036C28.9397 29.036 28.3397 28.808 28.0277 28.352C27.7157 27.896 27.5597 27.392 27.5597 26.84V1.964C27.5597 0.811999 28.2557 0.235999 29.6477 0.235999C31.0877 0.235999 31.8077 0.811999 31.8077 1.964V25.4H43.8317C44.6957 25.4 45.1277 25.988 45.1277 27.164C45.1757 28.412 44.7437 29.036 43.8317 29.036H29.8277ZM67.8465 23.24C67.8465 25.184 67.1985 26.636 65.9025 27.596C65.2785 28.052 64.6305 28.412 63.9585 28.676C63.3105 28.916 62.6745 29.036 62.0505 29.036H54.2025C53.5785 29.036 52.9305 28.916 52.2585 28.676C51.6105 28.412 50.9745 28.052 50.3505 27.596C49.7265 27.116 49.2465 26.528 48.9105 25.832C48.5745 25.112 48.4065 24.248 48.4065 23.24V6.14C48.4065 5.18 48.5745 4.34 48.9105 3.62C49.2465 2.876 49.7265 2.276 50.3505 1.82H50.3145C50.9385 1.412 51.5865 1.076 52.2585 0.811998C52.9305 0.547999 53.5785 0.415999 54.2025 0.415999H62.0505C62.6745 0.415999 63.3225 0.547999 63.9945 0.811998C64.6665 1.076 65.3145 1.412 65.9385 1.82H65.9025C66.5265 2.276 67.0065 2.876 67.3425 3.62C67.6785 4.34 67.8465 5.18 67.8465 6.14V8.624C67.8465 9.776 67.1265 10.352 65.6865 10.352C64.2705 10.352 63.5625 9.776 63.5625 8.624V6.464C63.5625 5.864 63.3825 5.312 63.0225 4.808C62.6625 4.304 62.0385 4.052 61.1505 4.052H55.1025C54.2145 4.052 53.5905 4.304 53.2305 4.808C52.8705 5.312 52.6905 5.864 52.6905 6.464V22.952C52.6905 23.576 52.8705 24.14 53.2305 24.644C53.5905 25.148 54.2145 25.4 55.1025 25.4H61.1505C62.0385 25.4 62.6625 25.148 63.0225 24.644C63.3825 24.14 63.5625 23.576 63.5625 22.952V20.864C63.5625 19.736 64.2705 19.172 65.6865 19.172C67.1265 19.172 67.8465 19.736 67.8465 20.864V23.24ZM88.2799 1.964C88.2799 0.811999 88.9879 0.235999 90.4039 0.235999C91.8439 0.235999 92.5639 0.811999 92.5639 1.964V27.488C92.5639 28.64 91.8439 29.216 90.4039 29.216C88.9879 29.216 88.2799 28.64 88.2799 27.488V1.964ZM77.3359 27.488C77.3359 28.64 76.6159 29.216 75.1759 29.216C73.7599 29.216 73.0519 28.64 73.0519 27.488V1.964C73.0519 0.811999 73.7599 0.235999 75.1759 0.235999C76.6159 0.235999 77.3359 0.811999 77.3359 1.964V27.488ZM85.7599 14.132C85.7599 14.972 85.4719 15.68 84.8959 16.256C84.3199 16.832 83.6119 17.12 82.7719 17.12C81.9559 17.12 81.2599 16.832 80.6839 16.256C80.1079 15.68 79.8199 14.972 79.8199 14.132C79.8199 13.292 80.1079 12.584 80.6839 12.008C81.2599 11.432 81.9559 11.144 82.7719 11.144C83.6119 11.144 84.3199 11.432 84.8959 12.008C85.4719 12.584 85.7599 13.292 85.7599 14.132ZM100.141 29.036C99.253 29.036 98.653 28.808 98.341 28.352C98.029 27.896 97.873 27.392 97.873 26.84V2.576C97.873 2.024 98.029 1.532 98.341 1.1C98.653 0.643999 99.253 0.415999 100.141 0.415999H112.669C113.557 0.415999 114.025 1.016 114.073 2.216C114.121 3.44 113.653 4.052 112.669 4.052H102.121V25.4H113.317C114.205 25.4 114.661 25.988 114.685 27.164C114.733 28.412 114.277 29.036 113.317 29.036H100.141ZM111.337 14.132C111.337 14.972 111.037 15.68 110.437 16.256C109.861 16.832 109.153 17.12 108.313 17.12C107.497 17.12 106.801 16.832 106.225 16.256C105.649 15.68 105.361 14.972 105.361 14.132C105.361 13.292 105.649 12.584 106.225 12.008C106.801 11.432 107.497 11.144 108.313 11.144C109.153 11.144 109.861 11.432 110.437 12.008C111.037 12.584 111.337 13.292 111.337 14.132ZM128.767 17.156H125.995C125.587 17.156 125.263 17 125.023 16.688C124.807 16.352 124.699 15.908 124.699 15.356C124.699 14.132 125.203 13.52 126.211 13.52H130.423C131.311 13.52 131.935 13.268 132.295 12.764C132.655 12.26 132.835 11.708 132.835 11.108V6.464C132.835 5.864 132.655 5.312 132.295 4.808C131.935 4.304 131.311 4.052 130.423 4.052H122.827V27.524C122.827 28.676 122.119 29.252 120.703 29.252C119.287 29.252 118.579 28.676 118.579 27.524V2.576C118.579 1.712 118.795 1.136 119.227 0.847998C119.683 0.559999 120.223 0.415999 120.847 0.415999H131.323C131.947 0.415999 132.595 0.547999 133.267 0.811998C133.939 1.076 134.587 1.412 135.211 1.82H135.175C135.799 2.276 136.279 2.876 136.615 3.62C136.951 4.34 137.119 5.18 137.119 6.14V11.396C137.119 13.34 136.471 14.792 135.175 15.752C134.911 15.944 134.623 16.124 134.311 16.292C134.023 16.46 133.723 16.628 133.411 16.796L139.171 26.3C139.243 26.42 139.315 26.576 139.387 26.768C139.459 26.96 139.495 27.116 139.495 27.236C139.495 27.812 139.087 28.364 138.271 28.892V28.856C137.719 29.192 137.251 29.36 136.867 29.36C136.315 29.36 135.871 29.084 135.535 28.532L135.571 28.568L128.767 17.156Z" fill="#E5E5E5"/>
<path d="M150.973 18.032C151.389 18.032 151.821 18.12 152.269 18.296C152.717 18.472 153.149 18.704 153.565 18.992H153.541C153.957 19.28 154.277 19.672 154.501 20.168C154.725 20.664 154.837 21.232 154.837 21.872V25.16C154.837 26.456 154.405 27.424 153.541 28.064C153.125 28.368 152.693 28.608 152.245 28.784C151.813 28.944 151.389 29.024 150.973 29.024H145.741C145.325 29.024 144.893 28.944 144.445 28.784C144.013 28.608 143.589 28.368 143.173 28.064C142.309 27.424 141.877 26.456 141.877 25.16V23.576C141.877 22.824 142.349 22.448 143.293 22.448C144.253 22.448 144.733 22.824 144.733 23.576V24.968C144.733 25.384 144.853 25.76 145.093 26.096C145.333 26.432 145.749 26.6 146.341 26.6H150.373C150.965 26.6 151.381 26.432 151.621 26.096C151.861 25.76 151.981 25.384 151.981 24.968V22.064C151.981 21.664 151.861 21.296 151.621 20.96C151.381 20.608 150.965 20.432 150.373 20.432H145.741C144.909 20.432 144.053 20.128 143.173 19.52C142.309 18.848 141.877 17.88 141.877 16.616V13.76C141.877 13.12 141.989 12.56 142.213 12.08C142.437 11.584 142.757 11.184 143.173 10.88H143.149C143.565 10.608 143.997 10.384 144.445 10.208C144.893 10.032 145.325 9.944 145.741 9.944H150.973C151.389 9.944 151.821 10.032 152.269 10.208C152.717 10.384 153.149 10.608 153.565 10.88H153.541C153.957 11.184 154.277 11.584 154.501 12.08C154.725 12.56 154.837 13.12 154.837 13.76V15.176C154.837 15.928 154.357 16.304 153.397 16.304C152.453 16.304 151.981 15.928 151.981 15.176V13.976C151.981 13.576 151.861 13.208 151.621 12.872C151.381 12.536 150.965 12.368 150.373 12.368H146.341C145.749 12.368 145.333 12.536 145.093 12.872C144.853 13.208 144.733 13.576 144.733 13.976V16.424C144.733 16.84 144.853 17.216 145.093 17.552C145.333 17.872 145.749 18.032 146.341 18.032H150.973ZM165.019 28.04C165.019 28.808 164.539 29.192 163.579 29.192C162.635 29.192 162.163 28.808 162.163 28.04V12.368H157.963C157.387 12.368 157.083 11.96 157.051 11.144C157.051 10.344 157.355 9.944 157.963 9.944H169.219C169.827 9.944 170.115 10.344 170.083 11.144C170.083 11.96 169.795 12.368 169.219 12.368H165.019V28.04ZM179.021 21.104H177.173C176.901 21.104 176.685 21 176.525 20.792C176.381 20.568 176.309 20.272 176.309 19.904C176.309 19.088 176.645 18.68 177.317 18.68H180.125C180.717 18.68 181.133 18.512 181.373 18.176C181.613 17.84 181.733 17.472 181.733 17.072V13.976C181.733 13.576 181.613 13.208 181.373 12.872C181.133 12.536 180.717 12.368 180.125 12.368H175.061V28.016C175.061 28.784 174.589 29.168 173.645 29.168C172.701 29.168 172.229 28.784 172.229 28.016V11.384C172.229 10.808 172.373 10.424 172.661 10.232C172.965 10.04 173.325 9.944 173.741 9.944H180.725C181.141 9.944 181.573 10.032 182.021 10.208C182.469 10.384 182.901 10.608 183.317 10.88H183.293C183.709 11.184 184.029 11.584 184.253 12.08C184.477 12.56 184.589 13.12 184.589 13.76V17.264C184.589 18.56 184.157 19.528 183.293 20.168C183.117 20.296 182.925 20.416 182.717 20.528C182.525 20.64 182.325 20.752 182.117 20.864L185.957 27.2C186.005 27.28 186.053 27.384 186.101 27.512C186.149 27.64 186.173 27.744 186.173 27.824C186.173 28.208 185.901 28.576 185.357 28.928V28.904C184.989 29.128 184.677 29.24 184.421 29.24C184.053 29.24 183.757 29.056 183.533 28.688L183.557 28.712L179.021 21.104ZM189.936 29.024C189.344 29.024 188.944 28.872 188.736 28.568C188.528 28.264 188.424 27.928 188.424 27.56V11.384C188.424 11.016 188.528 10.688 188.736 10.4C188.944 10.096 189.344 9.944 189.936 9.944H198.288C198.88 9.944 199.192 10.344 199.224 11.144C199.256 11.96 198.944 12.368 198.288 12.368H191.256V26.6H198.72C199.312 26.6 199.616 26.992 199.632 27.776C199.664 28.608 199.36 29.024 198.72 29.024H189.936ZM197.4 19.088C197.4 19.648 197.2 20.12 196.8 20.504C196.416 20.888 195.944 21.08 195.384 21.08C194.84 21.08 194.376 20.888 193.992 20.504C193.608 20.12 193.416 19.648 193.416 19.088C193.416 18.528 193.608 18.056 193.992 17.672C194.376 17.288 194.84 17.096 195.384 17.096C195.944 17.096 196.416 17.288 196.8 17.672C197.2 18.056 197.4 18.528 197.4 19.088ZM208.541 12.296L203.285 28.424V28.4C203.189 28.64 203.053 28.84 202.877 29C202.717 29.144 202.517 29.216 202.277 29.216C202.149 29.216 202.021 29.2 201.893 29.168C201.781 29.152 201.661 29.128 201.533 29.096H201.557C200.645 28.808 200.309 28.296 200.549 27.56L206.021 10.928C206.101 10.672 206.237 10.456 206.429 10.28C206.637 10.104 206.877 10 207.149 9.968C207.421 9.92 207.685 9.888 207.941 9.872C208.197 9.84 208.397 9.824 208.541 9.824C208.685 9.824 208.885 9.84 209.141 9.872C209.397 9.888 209.661 9.912 209.933 9.944C210.157 9.976 210.373 10.096 210.581 10.304C210.805 10.512 210.973 10.72 211.085 10.928C211.981 13.68 212.885 16.456 213.797 19.256C214.725 22.04 215.637 24.808 216.533 27.56C216.757 28.296 216.421 28.808 215.525 29.096C215.397 29.128 215.277 29.152 215.165 29.168C215.069 29.2 214.957 29.216 214.829 29.216C214.605 29.216 214.397 29.144 214.205 29C214.029 28.84 213.901 28.64 213.821 28.4V28.424L208.541 12.296ZM210.341 23.24C210.341 23.752 210.157 24.192 209.789 24.56C209.437 24.912 209.005 25.088 208.493 25.088C207.981 25.088 207.549 24.912 207.197 24.56C206.845 24.192 206.669 23.752 206.669 23.24C206.669 22.728 206.845 22.296 207.197 21.944C207.549 21.576 207.981 21.392 208.493 21.392C209.005 21.392 209.437 21.576 209.789 21.944C210.157 22.296 210.341 22.728 210.341 23.24ZM233.394 9.824C233.906 9.824 234.466 9.944 235.074 10.184C235.634 10.408 235.914 10.832 235.914 11.456V27.992C235.914 28.76 235.442 29.144 234.498 29.144C233.554 29.144 233.082 28.76 233.082 27.992V15.656L232.386 15.584L231.426 18.704L228.546 28.304C228.37 28.864 227.938 29.136 227.25 29.12C226.946 29.104 226.682 29.024 226.458 28.88C226.234 28.736 226.082 28.528 226.002 28.256L224.274 22.664C223.922 21.56 223.57 20.44 223.218 19.304C222.866 18.152 222.482 16.88 222.066 15.488L221.37 15.584V27.992C221.37 28.76 220.898 29.144 219.954 29.144C219.01 29.144 218.538 28.76 218.538 27.992V11.456C218.538 10.848 218.818 10.424 219.378 10.184C219.97 9.944 220.538 9.832 221.082 9.848C221.322 9.848 221.57 9.88 221.826 9.944C222.082 10.008 222.322 10.104 222.546 10.232C222.77 10.344 222.97 10.496 223.146 10.688C223.322 10.864 223.458 11.072 223.554 11.312L227.322 24.152C227.594 23.208 227.882 22.184 228.186 21.08C228.49 19.976 228.802 18.856 229.122 17.72C229.442 16.584 229.754 15.464 230.058 14.36C230.378 13.24 230.674 12.2 230.946 11.24C231.042 11.016 231.178 10.816 231.354 10.64C231.53 10.464 231.73 10.32 231.954 10.208C232.178 10.08 232.41 9.984 232.65 9.92C232.906 9.856 233.154 9.824 233.394 9.824Z" fill="#FCA311"/>
</svg>
