<svg width="32" height="33" viewBox="0 0 32 33" fill="none" xmlns="http://www.w3.org/2000/svg">
<path d="M16.0091 0.509094C7.1754 0.509094 0.0181885 7.66631 0.0181885 16.5C0.0181885 25.3337 7.1754 32.4909 16.0091 32.4909C24.8428 32.4909 32 25.3337 32 16.5C32 7.66631 24.8428 0.509094 16.0091 0.509094ZM16.0091 6.69912C19.1428 6.69912 21.6833 9.23961 21.6833 12.3733C21.6833 15.507 19.1428 18.0475 16.0091 18.0475C12.8754 18.0475 10.3349 15.507 10.3349 12.3733C10.3349 9.23961 12.8754 6.69912 16.0091 6.69912ZM16.0091 28.88C12.2241 28.88 8.83252 27.1649 6.56285 24.4825C7.77506 22.2 10.1479 20.6267 12.9141 20.6267C13.0688 20.6267 13.2236 20.6525 13.3719 20.6976C14.2101 20.9684 15.087 21.1425 16.0091 21.1425C16.9311 21.1425 17.8145 20.9684 18.6463 20.6976C18.7946 20.6525 18.9493 20.6267 19.1041 20.6267C21.8703 20.6267 24.2431 22.2 25.4553 24.4825C23.1856 27.1649 19.794 28.88 16.0091 28.88Z" fill="white"/>
</svg>
